<?xml version="1.0" standalone="no"?><!DOCTYPE svg PUBLIC "-//W3C//DTD SVG 1.1//EN" "http://www.w3.org/Graphics/SVG/1.1/DTD/svg11.dtd"><svg t="1769357322237" class="icon" viewBox="0 0 1024 1024" version="1.1" xmlns="http://www.w3.org/2000/svg" p-id="1956" xmlns:xlink="http://www.w3.org/1999/xlink" width="200" height="200"><path d="M170.666667 410.538667V127.786667c0-19.328 24.106667-28.48 37.184-14.101334l112.064 123.178667a344.490667 344.490667 0 0 1 384.149333 0l112.085333-123.178667C829.226667 99.328 853.333333 108.48 853.333333 127.786667V896H170.666667V410.538667z" fill="#ECECEC" p-id="1957"></path><path d="M853.333333 128.042667V650.666667c-74.666667-21.333333-196.608-92.224-266.666666-202.666667-28.906667-45.589333-55.338667-108.8-74.666667-161.002667-19.328 52.202667-45.76 115.413333-74.666667 161.002667-70.058667 110.464-192 181.333333-266.666666 202.666667V128.042667c0-19.541333 24.106667-28.8 37.184-14.272l112.064 124.522666a341.205333 341.205333 0 0 1 61.461333-33.194666c32.661333-13.525333 87.082667-13.866667 130.602667-13.397334 43.52-0.469333 97.984-0.128 130.645333 13.397334 21.610667 8.96 42.197333 20.074667 61.44 33.194666l112.085333-124.522666C829.226667 99.242667 853.333333 108.501333 853.333333 128.042667z" fill="#B8B8B8" p-id="1958"></path><path d="M584.533333 187.733333l-15.808 96.64c-1.92 11.605333 13.653333 17.28 19.669334 7.189334l49.706666-83.050667-53.546666-20.778667z m-84.330666 98.56l-20.096-95.829333 57.429333 0.042667-16.384 95.402666c-2.005333 11.584-18.56 11.904-20.949333 0.384z m-61.888 8.512L384 213.333333l53.333333-21.333333 20.266667 94.656c2.474667 11.498667-12.757333 17.92-19.285333 8.149333z" fill="#4A4A4A" p-id="1959"></path><path d="M362.666667 458.666667a32 32 0 1 1-64 0 32 32 0 0 1 64 0zM725.333333 458.666667a32 32 0 1 1-64 0 32 32 0 0 1 64 0zM524.928 673.536a10.666667 10.666667 0 0 0-11.264-12.629333 10.666667 10.666667 0 0 0-11.242667 12.586666c-5.12 10.453333-17.109333 15.957333-32.341333 17.066667a72.042667 72.042667 0 0 1-22.933333-1.941333 34.218667 34.218667 0 0 1-7.36-2.773334c-1.109333-0.597333-1.6-1.002667-1.706667-1.109333h-0.021333a10.666667 10.666667 0 0 0-18.048 11.349333c2.432 3.989333 6.250667 6.698667 9.6 8.533334 3.562667 1.92 7.722667 3.456 12.074666 4.608 8.725333 2.304 19.306667 3.413333 29.952 2.624 14.229333-1.045333 30.72-5.76 41.941334-17.408 10.858667 11.562667 26.773333 16.362667 40.853333 17.408 10.474667 0.789333 20.970667-0.32 29.781333-2.602667 8.234667-2.133333 17.024-5.845333 22.122667-11.754667a10.666667 10.666667 0 0 0-16.192-13.909333c-0.682667 0.810667-4.138667 3.157333-11.306667 5.013333-6.613333 1.706667-14.72 2.581333-22.826666 1.984-14.592-1.109333-26.048-6.506667-31.082667-17.066666z" fill="#000000" p-id="1960"></path><path d="M316.544 264.896L192 127.978667v471.125333l75.2 13.802667a10.666667 10.666667 0 0 1-3.84 20.992L192 620.8V661.333333h74.666667a10.666667 10.666667 0 0 1 0 21.333334H192v40.746666l71.765333-11.946666a10.666667 10.666667 0 1 1 3.498667 21.056L192 745.045333V896h640v-150.997333l-75.242667-12.864a10.666667 10.666667 0 1 1 3.584-21.013334l71.658667 12.224V682.666667h-74.666667a10.666667 10.666667 0 0 1 0-21.333334H832v-39.744l-69.674667 17.109334a10.666667 10.666667 0 1 1-5.077333-20.714667l74.752-18.346667V127.957333l-124.544 136.938667-15.296-10.304a323.157333 323.157333 0 0 0-360.32 0l-15.296 10.304zM853.333333 594.389333l69.674667-17.088a10.666667 10.666667 0 0 1 5.077333 20.714667l-74.752 18.346667V661.333333h74.666667a10.666667 10.666667 0 0 1 0 21.333334H853.333333v44.330666l75.242667 12.864a10.666667 10.666667 0 0 1-3.584 21.013334L853.333333 748.650667V896H170.666667v-147.413333l-71.765334 11.946666a10.666667 10.666667 0 1 1-3.498666-21.056L170.666667 726.954667V682.666667H96a10.666667 10.666667 0 0 1 0-21.333334H170.666667v-44.437333l-75.2-13.802667a10.666667 10.666667 0 1 1 3.861333-20.992L170.666667 595.2V127.978667c0-19.498667 24-28.8 37.12-14.357334l112.128 123.285334a344.490667 344.490667 0 0 1 384.149333 0l112.149333-123.306667C829.333333 99.2 853.333333 108.501333 853.333333 128v466.410667z" fill="#000000" p-id="1961"></path></svg>