<?xml version="1.0" standalone="no"?><!DOCTYPE svg PUBLIC "-//W3C//DTD SVG 1.1//EN" "http://www.w3.org/Graphics/SVG/1.1/DTD/svg11.dtd"><svg t="1769357357933" class="icon" viewBox="0 0 1024 1024" version="1.1" xmlns="http://www.w3.org/2000/svg" p-id="2122" xmlns:xlink="http://www.w3.org/1999/xlink" width="200" height="200"><path d="M170.666667 410.602667V127.893333c0-19.349333 24.106667-28.501333 37.184-14.122666l112.064 123.2a344.490667 344.490667 0 0 1 384.149333 0l112.085333-123.2C829.226667 99.392 853.333333 108.544 853.333333 127.893333v768.192H170.666667V410.602667z" fill="#FFFFFF" p-id="2123"></path><path d="M853.333333 128.106667V650.730667c-74.666667-21.333333-196.608-92.202667-266.666666-202.666667-28.906667-45.568-55.338667-108.8-74.666667-161.002667-19.328 52.224-45.76 115.434667-74.666667 161.002667-70.058667 110.464-192 181.333333-266.666666 202.666667V128.128c0-19.562667 24.106667-28.8 37.184-14.293333l112.064 124.522666a341.354667 341.354667 0 0 1 61.461333-33.173333c32.661333-13.546667 87.082667-13.866667 130.602667-13.418667 43.52-0.448 97.984-0.128 130.645333 13.397334 21.610667 8.96 42.197333 20.096 61.44 33.194666l112.085333-124.501333C829.226667 99.306667 853.333333 108.565333 853.333333 128.106667z" fill="#FBCA82" p-id="2124"></path><path d="M584.533333 187.818667l-15.808 96.64c-1.92 11.584 13.653333 17.28 19.669334 7.189333l49.706666-83.072-53.546666-20.757333z m-84.330666 98.56l-20.096-95.829334 57.429333 0.042667-16.384 95.381333c-2.005333 11.605333-18.56 11.904-20.949333 0.384z m-61.888 8.490666L384 213.418667l53.333333-21.333334 20.266667 94.634667c2.474667 11.52-12.757333 17.941333-19.285333 8.149333z" fill="#CE613E" p-id="2125"></path><path d="M362.666667 458.730667a32 32 0 1 1-64 0 32 32 0 0 1 64 0zM725.333333 458.730667a32 32 0 1 1-64 0 32 32 0 0 1 64 0zM524.928 673.6a10.666667 10.666667 0 0 0-11.264-12.608 10.666667 10.666667 0 0 0-11.242667 12.565333c-5.12 10.453333-17.109333 15.978667-32.341333 17.088a72.042667 72.042667 0 0 1-22.933333-1.962666 34.218667 34.218667 0 0 1-7.36-2.752c-1.109333-0.597333-1.6-1.024-1.706667-1.130667h-0.021333a10.666667 10.666667 0 0 0-18.048 11.370667c2.432 3.989333 6.250667 6.698667 9.6 8.533333 3.562667 1.92 7.722667 3.434667 12.074666 4.608 8.725333 2.304 19.306667 3.392 29.952 2.602667 14.229333-1.024 30.72-5.76 41.941334-17.386667 10.858667 11.562667 26.773333 16.341333 40.853333 17.386667 10.474667 0.789333 20.970667-0.32 29.781333-2.602667 8.234667-2.133333 17.024-5.824 22.122667-11.733333a10.666667 10.666667 0 0 0-16.192-13.930667c-0.682667 0.832-4.138667 3.157333-11.306667 5.013333-6.613333 1.706667-14.72 2.602667-22.826666 1.984-14.592-1.088-26.048-6.485333-31.082667-17.045333z" fill="#000000" p-id="2126"></path><path d="M316.544 264.96l15.296-10.304a323.2 323.2 0 0 1 360.32 0l15.296 10.304L832 128.042667v471.68l-74.752 18.346666a10.666667 10.666667 0 0 0 5.077333 20.693334L832 621.696v39.744h-74.666667a10.666667 10.666667 0 1 0 0 21.333333H832v40.682667l-71.658667-12.245333a10.666667 10.666667 0 1 0-3.584 21.034666l75.242667 12.842667v151.018667H192v-150.976l75.264-12.501334a10.666667 10.666667 0 1 0-3.498667-21.056L192 723.498667v-40.746667h74.666667a10.666667 10.666667 0 0 0 0-21.333333H192v-40.533334l71.338667 13.077334a10.666667 10.666667 0 1 0 3.84-20.970667L192 599.189333V128.042667l124.544 136.917333zM853.333333 594.474667V128.042667c0-19.498667-24-28.778667-37.12-14.357334l-112.128 123.285334a344.512 344.512 0 0 0-384.149333 0L207.786667 113.685333C194.666667 99.264 170.666667 108.586667 170.666667 128.042667v467.221333l-71.338667-13.077333a10.666667 10.666667 0 0 0-3.84 20.970666L170.666667 616.96v44.437333H96a10.666667 10.666667 0 1 0 0 21.333334H170.666667v44.309333l-75.264 12.501333a10.666667 10.666667 0 0 0 3.498666 21.056L170.666667 748.650667v147.413333h682.666666v-147.349333l71.658667 12.245333a10.666667 10.666667 0 1 0 3.584-21.034667L853.333333 727.082667v-44.330667h74.666667a10.666667 10.666667 0 0 0 0-21.333333H853.333333v-44.970667l74.752-18.346667a10.666667 10.666667 0 0 0-5.077333-20.736L853.333333 594.474667z" fill="#000000" p-id="2127"></path></svg>