<?xml version="1.0" standalone="no"?><!DOCTYPE svg PUBLIC "-//W3C//DTD SVG 1.1//EN" "http://www.w3.org/Graphics/SVG/1.1/DTD/svg11.dtd"><svg t="1769609268393" class="icon" viewBox="0 0 1024 1024" version="1.1" xmlns="http://www.w3.org/2000/svg" p-id="1148" xmlns:xlink="http://www.w3.org/1999/xlink" width="200" height="200"><path d="M170.666667 410.538667V127.786667c0-19.328 24.106667-28.48 37.184-14.101334l112.064 123.178667a344.490667 344.490667 0 0 1 384.149333 0l112.085333-123.178667C829.226667 99.328 853.333333 108.48 853.333333 127.786667V896H170.666667V410.538667z" fill="#FFE4DC" p-id="1149"></path><path d="M362.666667 458.666667a32 32 0 1 1-64 0 32 32 0 0 1 64 0zM725.333333 458.666667a32 32 0 1 1-64 0 32 32 0 0 1 64 0zM524.928 673.536a10.666667 10.666667 0 0 0-11.242667-12.629333 10.688 10.688 0 0 0-11.264 12.586666c-5.12 10.453333-17.109333 15.957333-32.341333 17.066667a72.042667 72.042667 0 0 1-22.933333-1.941333 34.218667 34.218667 0 0 1-7.36-2.773334 9.109333 9.109333 0 0 1-1.728-1.130666 10.666667 10.666667 0 0 0-18.048 11.370666c2.432 3.989333 6.250667 6.698667 9.6 8.533334 3.562667 1.92 7.722667 3.456 12.074666 4.608 8.725333 2.304 19.306667 3.413333 29.952 2.624 14.229333-1.045333 30.72-5.76 41.941334-17.408 10.837333 11.562667 26.773333 16.362667 40.853333 17.408 10.474667 0.789333 20.949333-0.32 29.781333-2.602667 8.234667-2.133333 17.024-5.845333 22.122667-11.754667a10.666667 10.666667 0 0 0-16.192-13.909333c-0.682667 0.810667-4.138667 3.157333-11.306667 5.013333-6.613333 1.706667-14.72 2.581333-22.826666 1.984-14.592-1.109333-26.048-6.506667-31.082667-17.066666z" fill="#000000" p-id="1150"></path><path d="M316.544 264.896l15.296-10.304a323.157333 323.157333 0 0 1 360.32 0l15.296 10.304L832 127.978667v471.658666l-74.752 18.346667a10.666667 10.666667 0 1 0 5.077333 20.714667L832 621.589333V661.333333h-74.666667a10.666667 10.666667 0 0 0 0 21.333334H832v40.682666l-71.658667-12.224a10.666667 10.666667 0 0 0-3.584 21.013334l75.242667 12.864V896H192v-150.954667l75.264-12.522666a10.666667 10.666667 0 1 0-3.498667-21.034667L192 723.413333V682.666667h74.666667a10.666667 10.666667 0 0 0 0-21.333334H192v-40.533333l71.338667 13.098667a10.666667 10.666667 0 1 0 3.84-20.992L192 599.104V128l124.544 136.917333zM853.333333 594.389333V128c0-19.498667-24-28.8-37.12-14.357333l-112.128 123.285333a344.512 344.512 0 0 0-384.149333 0L207.786667 113.578667C194.666667 99.2 170.666667 108.501333 170.666667 128v467.2l-71.338667-13.077333a10.666667 10.666667 0 0 0-3.84 20.992L170.666667 616.896V661.333333H96a10.666667 10.666667 0 0 0 0 21.333334H170.666667v44.288l-75.264 12.522666a10.666667 10.666667 0 1 0 3.498666 21.034667L170.666667 748.586667V896h682.666666v-147.349333l71.658667 12.224a10.666667 10.666667 0 1 0 3.584-21.013334L853.333333 726.997333V682.666667h74.666667a10.666667 10.666667 0 0 0 0-21.333334H853.333333v-44.970666l74.752-18.346667a10.666667 10.666667 0 0 0-5.077333-20.714667L853.333333 594.389333z" fill="#000000" p-id="1151"></path></svg>